<svg width="125" height="34" xmlns="http://www.w3.org/2000/svg"><path d="M6.72 12.414c0 .65.658 1.168 1.962 1.539l3.143.933c1.671.488 2.968 1.244 3.86 2.24.9 1.007 1.357 2.261 1.357 3.726 0 1.883-.733 3.432-2.178 4.596-1.432 1.153-3.338 1.739-5.667 1.739-2.202 0-4.145-.525-5.772-1.562C1.788 24.585.655 23.16.064 21.39L0 21.197l4.363-2.054.098.208c.484 1.013 1.153 1.816 1.98 2.388a4.757 4.757 0 002.756.856c.924 0 2.151-.157 2.151-1.529 0-.679-.581-1.17-1.778-1.501l-3.358-.933c-1.65-.465-2.938-1.234-3.832-2.281-.898-1.057-1.355-2.321-1.355-3.76 0-1.264.33-2.38.978-3.324.646-.94 1.563-1.685 2.73-2.217 1.156-.525 2.5-.793 3.993-.793 1.96 0 3.708.465 5.194 1.382 1.492.92 2.564 2.234 3.18 3.903l.073.197-4.43 2.063-.084-.237c-.269-.763-.766-1.381-1.479-1.843-.716-.465-1.543-.699-2.454-.699-.645 0-1.153.13-1.506.388-.336.244-.5.572-.5 1v.003zm28.38-5.19c-1.15-.639-2.505-.963-4.03-.963-1.133 0-2.172.194-3.086.575a5.252 5.252 0 00-1.846 1.274V0l-5.876.973v25.782h5.876V15.07c0-1.057.32-1.916.945-2.552.635-.642 1.428-.953 2.433-.953s1.799.311 2.434.953c.625.636.945 1.492.945 2.552v11.685h5.875V13.923c0-1.519-.326-2.866-.968-4.01a6.94 6.94 0 00-2.706-2.692l.004.003zm26.531 4.1c.968 1.562 1.459 3.378 1.459 5.401 0 2.024-.49 3.806-1.459 5.381a10.56 10.56 0 01-3.892 3.726c-1.617.9-3.44 1.358-5.419 1.358-1.98 0-3.808-.458-5.435-1.358a10.48 10.48 0 01-3.91-3.726c-.968-1.571-1.458-3.384-1.458-5.38 0-1.997.49-3.84 1.458-5.402a10.558 10.558 0 013.91-3.705c1.627-.9 3.455-1.358 5.435-1.358 1.98 0 3.802.458 5.419 1.358a10.62 10.62 0 013.892 3.705zm-4.595 5.401c0-1.491-.44-2.739-1.314-3.705-.864-.963-2.01-1.448-3.402-1.448-1.392 0-2.545.488-3.419 1.451-.88.97-1.33 2.217-1.33 3.706 0 1.488.446 2.766 1.327 3.722.877.95 2.027 1.435 3.422 1.435s2.538-.482 3.402-1.432c.87-.956 1.31-2.21 1.31-3.725l.004-.004zm29.328-5.304c.908 1.572 1.365 3.358 1.365 5.304 0 1.947-.454 3.7-1.348 5.285a10.2 10.2 0 01-3.674 3.782c-1.546.926-3.321 1.398-5.28 1.398a10.16 10.16 0 01-3.194-.495 7.237 7.237 0 01-2.205-1.17v6.946l-5.876.98V6.689h5.516v1.685c1.412-1.404 3.358-2.117 5.795-2.117 1.91 0 3.664.472 5.207 1.398a10.421 10.421 0 013.69 3.763l.004.003zM73.36 13.003c-.88.957-1.328 2.21-1.328 3.722s.447 2.796 1.328 3.74c.877.94 2.027 1.417 3.422 1.417s2.602-.485 3.513-1.438c.914-.956 1.381-2.207 1.381-3.719 0-1.511-.464-2.732-1.381-3.702-.915-.963-2.095-1.455-3.513-1.455-1.419 0-2.545.482-3.422 1.435zm35.402-1.86c.773 1.475 1.163 3.161 1.163 5.007 0 .388-.02.776-.054 1.154a4.016 4.016 0 01-.211 1.007l-.054.15H95.92c.174 1.04.632 1.896 1.368 2.542.793.699 1.835 1.057 3.096 1.057.917 0 1.71-.184 2.36-.545a3.945 3.945 0 001.519-1.495l.107-.184 4.723 2.23-.084.201c-.619 1.478-1.721 2.682-3.274 3.575-1.543.89-3.368 1.341-5.422 1.341s-4-.475-5.57-1.414a9.82 9.82 0 01-3.657-3.806c-.857-1.582-1.29-3.358-1.29-5.281 0-1.923.453-3.796 1.347-5.358a10.08 10.08 0 013.637-3.709c1.523-.903 3.26-1.361 5.17-1.361 2.128 0 3.95.445 5.425 1.324 1.476.88 2.615 2.077 3.388 3.556l-.003.01zm-11.355.733c-.628.512-1.079 1.244-1.348 2.177h7.627c-.15-.853-.537-1.562-1.15-2.113-.675-.606-1.545-.91-2.587-.91-1.042 0-1.856.284-2.542.846zm26.21-5.398c-1.235 0-2.34.23-3.295.686-.73.348-1.338.926-1.815 1.725V6.692h-5.516V26.76l5.875-.927v-9.86c0-1.387.39-2.474 1.16-3.23.77-.756 1.795-1.137 3.049-1.137H125V6.478h-1.385z" fill="#002FFF"/></svg>