<?xml version="1.0" encoding="UTF-8"?>
<svg width="125px" height="34px" viewBox="0 0 125 34" version="1.1" xmlns="http://www.w3.org/2000/svg" xmlns:xlink="http://www.w3.org/1999/xlink">
    <title>59753FA4-B35C-45AF-8518-6C6E3FD02D1E</title>
    <g id="Strony" stroke="none" stroke-width="1" fill="none" fill-rule="evenodd">
        <g id="Nowe-menu-|-Załóż-sklep-_desktop" transform="translate(-80.000000, -17.000000)" fill="#002FFF" fill-rule="nonzero">
            <g id="Group-2" transform="translate(80.000000, 17.000000)">
                <path d="M6.71941808,12.4144185 C6.71941808,13.0632324 7.37825046,13.5816147 8.68246968,13.9528432 L11.8253691,14.8859313 C13.4959798,15.3742139 14.7934762,16.1300486 15.6842445,17.1266803 C16.5850969,18.1333452 17.0422459,19.3874957 17.0422459,20.8523436 C17.0422459,22.7352417 16.309463,24.2836996 14.8640654,25.4475513 C13.4321134,26.6013699 11.5262054,27.1866401 9.19676231,27.1866401 C6.99505203,27.1866401 5.05216877,26.6615691 3.42525614,25.6248046 C1.78825934,24.5846957 0.655470998,23.1599807 0.0638664049,21.3907923 L0,21.196817 L4.36308387,19.1433544 L4.46056418,19.3507073 C4.9446043,20.364061 5.61352085,21.1667174 6.44042273,21.73861 C7.26396321,22.3071583 8.18834539,22.5947768 9.19676231,22.5947768 C10.1211445,22.5947768 11.3480517,22.4375899 11.3480517,21.0663853 C11.3480517,20.3874718 10.7665313,19.8958448 9.56987657,19.564749 L6.21184823,18.631661 C4.56140587,18.1667892 3.2739936,17.3975768 2.37986393,16.3507791 C1.48237287,15.2939483 1.02522387,14.0297645 1.02522387,12.5916718 C1.02522387,11.327488 1.35464006,10.2104579 2.00338828,9.26733667 C2.64877511,8.32755984 3.56643451,7.5817583 4.73283674,7.04999845 C5.88915481,6.52492741 7.23371071,6.25737529 8.72616775,6.25737529 C10.685858,6.25737529 12.4337806,6.7222471 13.9195149,7.63861312 C15.4119719,8.55832355 16.4842553,9.87267335 17.0993896,11.5415297 L17.1733401,11.7388494 L12.7430285,13.8023452 L12.6589937,13.5648927 C12.3900826,12.8023691 11.8925969,12.1836548 11.1799823,11.7221274 C10.4640062,11.2572556 9.63710436,11.0231475 8.72616775,11.0231475 C8.08078092,11.0231475 7.57321107,11.1535791 7.22026515,11.4110981 C6.88412617,11.6552394 6.71941808,11.9829907 6.71941808,12.4110741 L6.71941808,12.4144185 Z M35.0996316,7.22390733 C33.9500363,6.58512664 32.5953962,6.26071969 31.0693253,6.26071969 C29.936537,6.26071969 28.8978675,6.45469498 27.9835695,6.83595675 C27.2675935,7.13360849 26.6490978,7.56169189 26.1381666,8.11017374 L26.1381666,0 L20.2624573,0.973220849 L20.2624573,26.7552123 L26.1381666,26.7552123 L26.1381666,15.0698733 C26.1381666,14.0130425 26.4574986,13.1535313 27.0827171,12.518095 C27.7180197,11.8759699 28.5113077,11.5649405 29.5163632,11.5649405 C30.5214188,11.5649405 31.3147068,11.8759699 31.9500094,12.518095 C32.5752279,13.1535313 32.8945599,14.0096981 32.8945599,15.0698733 L32.8945599,26.7552123 L38.7702692,26.7552123 L38.7702692,13.9227436 C38.7702692,12.4043853 38.4442144,11.0565915 37.8021889,9.91280617 C37.1568021,8.76902084 36.2492269,7.86268803 35.0962702,7.22056293 L35.0996316,7.22390733 Z M61.6310808,11.3241436 C62.599161,12.8859791 63.0899239,14.7019892 63.0899239,16.7253521 C63.0899239,18.748715 62.599161,20.5312811 61.6310808,22.1064942 C60.6630005,23.6783629 59.3520585,24.9325135 57.7385914,25.8321575 C56.121763,26.7318015 54.2998897,27.1899845 52.3200312,27.1899845 C50.3401726,27.1899845 48.5115766,26.7318015 46.884664,25.8321575 C45.2577514,24.9325135 43.9400866,23.6783629 42.9753677,22.1064942 C42.0072875,20.5346255 41.5165246,18.7219598 41.5165246,16.7253521 C41.5165246,14.7287444 42.0072875,12.8859791 42.9753677,11.3241436 C43.943448,9.7656525 45.2577514,8.51819073 46.884664,7.61854671 C48.5115766,6.7189027 50.3401726,6.26071969 52.3200312,6.26071969 C54.2998897,6.26071969 56.121763,6.7189027 57.7385914,7.61854671 C59.3520585,8.51819073 60.6630005,9.7656525 61.6310808,11.3241436 L61.6310808,11.3241436 Z M57.036061,16.7253521 C57.036061,15.233749 56.5957189,13.9862872 55.7217576,13.0197552 C54.8578804,12.0565676 53.7116465,11.5716293 52.3200312,11.5716293 C50.9284158,11.5716293 49.7754592,12.059912 48.9014978,13.0230996 C48.0208137,13.9929761 47.5703875,15.2404378 47.5703875,16.7286965 C47.5703875,18.2169552 48.0174523,19.4945166 48.8981364,20.4510154 C49.7754592,21.4008255 50.9250545,21.8857637 52.3200312,21.8857637 C53.7150079,21.8857637 54.8578804,21.4041699 55.7217576,20.4543598 C56.5923575,19.497861 57.0326996,18.2437104 57.0326996,16.7286965 L57.036061,16.7253521 Z M86.3641864,11.4211313 C87.2717616,12.993 87.7289106,14.7789104 87.7289106,16.7253521 C87.7289106,18.6717938 87.275123,20.4242602 86.3809934,22.0095065 C85.4868637,23.5947529 84.2498723,24.8656255 82.7069944,25.7920247 C81.1607551,26.7184239 79.3859413,27.1899845 77.4262511,27.1899845 C76.3001855,27.1899845 75.2245408,27.0227645 74.2329309,26.6950131 C73.406029,26.4207722 72.6665232,26.0261328 72.0278592,25.5244726 L72.0278592,32.4707946 L66.1521499,33.4507042 L66.1521499,6.68880308 L71.6681905,6.68880308 L71.6681905,8.37438146 C73.0799742,6.96973281 75.0262188,6.25737529 77.4632264,6.25737529 C79.3724958,6.25737529 81.1271412,6.7289359 82.6700191,7.65533513 C84.212897,8.58173436 85.4532498,9.84926254 86.360825,11.4177869 L86.3641864,11.4211313 Z M73.3589695,13.0030332 C72.4782854,13.959532 72.0312206,15.2136826 72.0312206,16.7253521 C72.0312206,18.2370216 72.4782854,19.5212718 73.3589695,20.464393 C74.2362923,21.4041699 75.3858875,21.8824193 76.7808643,21.8824193 C78.175841,21.8824193 79.3825799,21.3974811 80.2935166,20.4443266 C81.2078146,19.4878278 81.6750477,18.2370216 81.6750477,16.7253521 C81.6750477,15.2136826 81.2111759,13.9929761 80.2935166,13.0230996 C79.3792185,12.059912 78.1993707,11.5682849 76.7808643,11.5682849 C75.3623578,11.5682849 74.2362923,12.0498788 73.3589695,13.0030332 Z M108.761126,11.1435459 C109.534246,12.618427 109.924167,14.3040054 109.924167,16.150115 C109.924167,16.5380656 109.903999,16.9260162 109.870385,17.3039336 C109.83341,17.6918842 109.76282,18.0296687 109.658617,18.3105984 L109.604835,18.4610965 L95.9206174,18.4610965 C96.0954097,19.5012054 96.5525587,20.3573722 97.288703,21.0028417 C98.081991,21.7018216 99.1240218,22.0596726 100.384543,22.0596726 C101.302202,22.0596726 102.09549,21.8757305 102.744239,21.5145351 C103.389625,21.1533398 103.900557,20.6516795 104.263587,20.0195876 L104.371151,19.8356455 L109.093904,22.0663614 L109.009869,22.2670255 C108.391373,23.7452509 107.288837,24.9492355 105.735875,25.8421907 C104.192998,26.7318015 102.367763,27.1832957 100.313954,27.1832957 C98.2601447,27.1832957 96.3139,26.7083907 94.744131,25.7686139 C93.174362,24.828837 91.9440934,23.5512757 91.086939,21.9626849 C90.2297846,20.380783 89.7961653,18.6049058 89.7961653,16.6818749 C89.7961653,14.758844 90.2499529,12.8859791 91.1440826,11.3241436 C92.0382123,9.7656525 93.2617581,8.51484633 94.7811063,7.61520231 C96.3038158,6.7122139 98.0416543,6.25403088 99.9509237,6.25403088 C102.078683,6.25403088 103.900557,6.69883629 105.376207,7.57841389 C106.851857,8.4579915 107.991368,9.65528725 108.764488,11.1335127 L108.761126,11.1435459 Z M97.4063517,11.8759699 C96.7777718,12.3876633 96.3273456,13.1200873 96.0584344,14.0531753 L103.685428,14.0531753 C103.534165,13.2003529 103.147605,12.4913398 102.535832,11.9395135 C101.860193,11.3341768 100.989593,11.0298363 99.9475623,11.0298363 C98.9055315,11.0298363 98.0920752,11.3141104 97.4063517,11.8759699 Z M123.615107,6.47810579 C122.381477,6.47810579 121.27558,6.70886949 120.320945,7.1637081 C119.591524,7.51152586 118.983112,8.09010733 118.505795,8.8894193 L118.505795,6.69214749 L112.989754,6.69214749 L112.989754,26.7585567 L118.865464,25.8321575 L118.865464,15.9728618 C118.865464,14.5849351 119.255385,13.4980046 120.025143,12.7421699 C120.794901,11.9863351 121.820125,11.6050734 123.073924,11.6050734 L125,11.6050734 L125,6.47810579 L123.615107,6.47810579 Z" id="Shape"></path>
            </g>
        </g>
    </g>
</svg>